<svg id="Layer_1" data-name="Layer 1" xmlns="http://www.w3.org/2000/svg" viewBox="0 0 80.11 75.82"><title>lightdarkblack</title><path d="M39.19,12.74a2,2,0,0,0,2-2V2.9a2,2,0,1,0-4,0v7.84A2,2,0,0,0,39.19,12.74Z" transform="translate(-1.28 -0.9)"/><path d="M39.19,64.88a2,2,0,0,0-2,2v7.84a2,2,0,0,0,4,0V66.88A2,2,0,0,0,39.19,64.88Z" transform="translate(-1.28 -0.9)"/><path d="M17.92,20.37a2,2,0,0,0,1.42.59,2,2,0,0,0,1.41-3.42L15.21,12a2,2,0,0,0-2.83,2.83Z" transform="translate(-1.28 -0.9)"/><path d="M13.12,38.81a2,2,0,0,0-2-2H3.28a2,2,0,0,0,0,4h7.84A2,2,0,0,0,13.12,38.81Z" transform="translate(-1.28 -0.9)"/><path d="M17.92,57.24l-5.54,5.55A2,2,0,0,0,13.8,66.2a2,2,0,0,0,1.41-.58l5.54-5.55a2,2,0,0,0-2.83-2.83Z" transform="translate(-1.28 -0.9)"/><path d="M59,16.45a22.48,22.48,0,0,0-9.9,2.35,22.36,22.36,0,1,0,0,40A22.34,22.34,0,1,0,59,16.45ZM39.19,57.17A18.36,18.36,0,1,1,45,21.41l-.48.41-.37.32c-.28.25-.56.51-.83.78-.05,0-.11.1-.16.16-.32.32-.63.65-.92,1a4.15,4.15,0,0,0-.27.32c-.2.24-.41.48-.6.73l-.31.41-.49.69-.3.45c-.15.23-.3.47-.44.71l-.27.46-.42.79L39,29c-.18.37-.35.75-.51,1.12l0,.12q-.26.61-.48,1.26c0,.14-.09.27-.13.41-.1.3-.19.59-.28.89s-.08.33-.13.5-.13.55-.19.83-.08.35-.11.53-.1.56-.14.85,0,.34-.08.51-.06.62-.09.93c0,.15,0,.3,0,.45,0,.46,0,.92,0,1.38s0,.93,0,1.39c0,.14,0,.29,0,.44,0,.31.05.62.09.93s0,.34.08.52.09.56.14.84.07.36.11.53.12.56.19.83.09.34.13.5.18.6.28.89.08.28.13.41q.23.64.48,1.26a1.42,1.42,0,0,0,.08.18c.15.35.31.71.48,1.06.07.14.14.28.22.42s.27.52.41.77l.27.47.44.7.3.45c.16.24.33.47.5.69l.31.42c.19.25.4.49.6.74l.26.31q.45.51.93,1l.17.16c.27.27.55.53.83.79l.35.29c.16.14.32.29.49.42A18.38,18.38,0,0,1,39.19,57.17Zm19.84,0a18,18,0,0,1-8.9-2.34,1.76,1.76,0,0,0-.27-.14,18.32,18.32,0,0,1,0-31.75l.29-.14h0A18.07,18.07,0,0,1,59,20.45a18.36,18.36,0,0,1,0,36.72Z" transform="translate(-1.28 -0.9)"/></svg>