<svg xmlns="http://www.w3.org/2000/svg" viewBox="0 0 334.95 452.88"><defs><style>.cls-1{fill:#e8d4bf;}.cls-2{fill:#bb968f;}.cls-3{fill:#e5ccbf;}.cls-4{fill:#c89a8a;}.cls-5{fill:#b98a80;}.cls-6{fill:#4d2a23;}.cls-7{fill:#543029;}.cls-8{fill:#642229;}.cls-9{fill:#5f473b;}.cls-10{fill:#77604f;}.cls-11{fill:#8f7159;}.cls-12{fill:#7d5339;}.cls-13{fill:#aa8d77;}.cls-14{fill:#665142;}.cls-15{fill:#3a2e29;}.cls-16{fill:#8c786b;}.cls-17{fill:#594a3b;}.cls-18{fill:#c88478;}.cls-19{fill:#d87564;}.cls-20{fill:#844034;}.cls-21{fill:#863e30;}.cls-22{fill:#211717;}.cls-23{fill:#938c84;}.cls-24{fill:#a85a21;}.cls-25{fill:#7e2917;}.cls-26{fill:#b83c26;}.cls-27{fill:#732f29;}.cls-28{fill:#e0902e;}.cls-29{fill:#622f14;}.cls-30{fill:#a97b68;}.cls-31{fill:#e7b8a4;}</style></defs><title>facev2</title><g id="outerear"><path class="cls-1" d="M449.4,268.57a42.89,42.89,0,0,1,15.23-19.18,14.6,14.6,0,0,1,5.65-2.26c.65-.11,6.11-.93,10.15,2.26,3.31,2.6,4.09,6.62,4.52,9a189.37,189.37,0,0,1,3.23,34.45c-.34,13.69-.51,20.54-1.63,25.32a79.59,79.59,0,0,1-10.46,24.44c-2.09,3.36-5.26,7.07-11.59,14.49a25.6,25.6,0,0,1-9.7,7.44,5.41,5.41,0,0,1-1.51.5C444.83,365,438.45,295.93,449.4,268.57Z" transform="translate(-153.25 -48.8)"/><path class="cls-2" d="M189.48,306.31c-3.52-4.08-13.79-16-21.45-13.38-2.91,1-5.92,4.22-6.89,7.87-.88,3.34.11,6.37,1,9.05,1.22,3.73,2.36,4.23,3.54,7.68a24.15,24.15,0,0,1,1.18,8.85c-.07,7.88,4.87,28.48,12.4,42.91,7.71,14.77,25,36.2,33.26,32.87C225.11,397.07,214.4,335.15,189.48,306.31Z" transform="translate(-153.25 -48.8)"/></g><g id="facebase"><path class="cls-3" d="M194.87,256.16c-.61,2.74-1.54,20.82-3.38,57-.5,9.63-1,20.35,2.25,33.86,2.25,9.44,4.94,14.53,9,24.27,9.66,23,9.49,29.88,15.24,44.58,10.78,27.56,16.66,33.12,24.27,41,12.87,13.35,45.12,30.88,72.67,39.26,6.78,2.06,35.09,13.9,70.56-5.15,32.44-17.42,42.27-44.61,59.37-68.92,19-27,11.78-56.93,12.42-76.75.79-25,1.4-44-7.34-66.6-4.68-12.08-7.67-13.91-20.32-39.5-15.48-31.33-14.84-36.36-19.75-42.89C377,152.45,208.91,193.78,194.87,256.16Z" transform="translate(-153.25 -48.8)"/></g><g id="mouth"><path class="cls-4" d="M281.94,421.19c-1.16,2.11-1.46,2-.61,2.69a3.69,3.69,0,0,0,2.52.3c1.47-.71,1.81.09,2.85-.28,1.28-.45,2.7.54,3.24.91,4.56,3.1,9.91,5,14.25,8.39,10,7.84,24.52,6.79,27.5,6.57,8.69-.63,14.92-3.89,20-6.57,5.76-3,16.85-8.84,22.54-16.88,1.86-2.63,4.2-4.31,8.9-7.68.67-.49,4-4,5.12-3.65,2.29.74.27.76,1,0,.33-.34.74.7.79-.06.06-1-.6.16-.68-.92s-3.88,1-7,1.17a17.49,17.49,0,0,1-5.36-.71c-4-.93-8.06-.82-16.18-.61-8.68.23-8.61,1.09-11.72.31-2-.51-3.83-1.32-6-.51-1.46.56-1.77,1.39-4.44,2.83-1.74.94-2.6,1.41-3.54,1.42-1.36,0-1.76-.61-5.16-1.82a8.88,8.88,0,0,0-2.53-.71c-2.35,0-4.06,2.33-4.75,3.13-2.9,3.43-6,2-18,5.87-9.24,3-8.54,4.23-13,4.55C288.3,419.18,283.33,418.65,281.94,421.19Z" transform="translate(-153.25 -48.8)"/><path class="cls-5" d="M320.42,454.61c6.55-.73,50.11-9.08,45.88-8.15-10.36,2.29-16.6,6.25-40.29,10.41C324.9,457.07,318.78,454.79,320.42,454.61Z" transform="translate(-153.25 -48.8)"/></g><g id="crack"><path class="cls-6" d="M284.18,420.05c-1.34.11-2.07-4.57-4-3.45-.69.4.1,7.18,1,7.35,3,.6,4.44.21,5.1-.09,1.77-.77,1.34-.41,2.83-1,1.66-.69,3.18.17,3.23,0S288.52,419.72,284.18,420.05Z" transform="translate(-153.25 -48.8)"/><path class="cls-7" d="M379.91,406.67c1.34-1.12,5.82-1.53,7-3.57l1.1-1.33s.6-2.62,1.49-1.67c1.67,1.81.56,5.2.1,5.41s.22.11-2.07.71a21.42,21.42,0,0,0-2.48.53c-2,.58-2.7,1-3.75.75C381.14,407.45,379.5,407,379.91,406.67Z" transform="translate(-153.25 -48.8)"/><path class="cls-8" d="M307.49,420.5c0-.25,4.52-1.27,10.07-1.49s7.68.58,15,.3a35.08,35.08,0,0,0,5.55-.44c4.12-.86,5.84-2.45,11.33-4.89a51.69,51.69,0,0,1,6.52-2.52c7.48-2.23,14.12-1.61,14.15-1.26s-5.51-.18-12.22,2.82c-3.69,1.64-3.59,2.48-8.22,4.51a55.29,55.29,0,0,1-9.26,3,43.23,43.23,0,0,1-7.78,1.41c-5.25.35-6.59-1-12.81-1.56C312.54,419.73,307.51,420.76,307.49,420.5Z" transform="translate(-153.25 -48.8)"/></g><g id="mainhair"><path class="cls-9" d="M432.54,241.41c16,52.23,21.2,66.85,21.95,66.63s-1.32-14.21-2-34.88c-.11-3.76-.2-8.28,2.35-12.94.3-.54,5.06-8.94,14.12-11,3.83-.87,5.37.1,6.66-1.18,1.91-1.9,1.62-7.13-6-20.62H473l-1.38-5.54L468.05,215l2.38-3.37,3.76-1.38-9.31-3.17-1.18-11.49L471,207.26l-5.54-15.65-.79-14.06-.2-11.28L457.16,151l-3.37-5.35-.19-8.91-.6-6.14c-5.18-.75-11.69-2.64-15.24-7.92-1.86-2.74-2-5.11-2.58-6.93-1.58-5.29-7.91-11.51-28.71-15.64,23.46,6.42,28.55,7.24,28.71,6.73.39-1.22-28.11-11.14-27.92-11.68s25.76,8.23,25.94,7.72c.09-.25-6.35-2.9-28.71-11.28-2.62-2.55-4.88-5.25-4.16-6.54,1.83-3.28,21.85,4.73,22,4.36.07-.21-5.94-2.61-23.37-9.11a11.46,11.46,0,0,0-3.56-4.75c-3.82-2.91-8.19-1.89-16.44-1.39-10.22.63-15.34.94-19.4-1s-3.75-3.67-11.09-9.9A71.22,71.22,0,0,0,337,55c-11.52-6.46-21.62-6.29-30.9-6.14-1,0-5.6.13-5.94,1.59-.26,1.18,2.55,1.89,3.77,4.55,1.31,2.88.32,7.11-2.38,9.71-3.5,3.37-9.3,3.42-11.88,1-3.56-3.37.47-10.11-2.57-12.28-2.72-1.94-8.93,1.3-12.68,4.75-4.89,4.51-3.76,7.71-8.31,11.09-2.61,1.94-4.56,2.06-11.89,3.56-4.29.89-11.77,2.42-16.83,4-9.81,3-21.15,9.24-20.39,12.88.67,3.19,10.4,2.92,10.49,5.14.07,1.59-4.81,2.3-10.29,4.56-16.25,6.69-24.41,21.44-25.55,23.56-1.55,2.9-.86,2.38-4,8.91-4.35,9.17-5.77,10.29-8.31,16.64-2.68,6.66-1.79,7.08-4,11.28a38.09,38.09,0,0,1-9.9,11.88c-14.23,12.54-14,50.71-9.5,74.66,1.5,8,4,29.44,4.82,39.65,1,12.7,17,4.7,16,11.43h0l13.86,43.17,1.77-45.16,1-16.42,3.17-20,14.06-11.29,21.78-3.56a150.56,150.56,0,0,0,76-10.3l9.9-1.58c32-5,43-5.85,52.87-14.06,3.33-2.76,4.42-4.61,4.75-4.36,1.23.9-11.16,26.63-27.32,28.71-2,.26-5.12.29-5.15.8-.06.85,8.59,2.88,15.25,2.57,15.76-.74,26.68-14.9,29.9-19.41,7.37,7.13,14.11,11.07,16,9.51s-.57-9-6.14-17.82L420.73,230c2.27.47,4.64,1.4,5.54,3.36,2.74,6-10,16.81-9.11,17.83.44.47,3.68-1.45,13.07-8.91Z" transform="translate(-153.25 -48.8)"/></g><g id="hairaccent"><path class="cls-10" d="M271.77,133.91c-8.28,16-8.64,22.74-13.75,28.54-5.57,6.34-11.27,12.16-11.27,12.16-7.51,6.48-7.23,8.64-17.8,16.92-2.18,1.71-11.26,6.53-10.13,7.84,1.6,1.87,13.93-5.29,22.72-11.62,9.5-6.85,23.5-15.41,25.65-14,2.51,1.63-19.23,21.71-21,25C245,201,281,168.88,288.33,173.56c3.67,2.34-14.85,20.27-12.33,22,3.92,2.72,33.39-30.83,38.23-27.84,3.47,2.14-1.19,23.49-.58,23.71s6.09-18.12,15.33-42.53c3-7.84,4.69-12,4.22-18.23-.83-11-8.21-23.46-16.11-23.77-6.88-.28-8.8,8.86-20.34,16.37C287.43,129.36,281.11,128.09,271.77,133.91Z" transform="translate(-153.25 -48.8)"/><path class="cls-11" d="M206.2,216.6l-1.26-.53L171.89,202.3l25.67,16.75,7.8-2.8Z" transform="translate(-153.25 -48.8)"/><path class="cls-12" d="M362.55,240.59c16.93-11.05,23.8-16,24.64-19.87a31.76,31.76,0,0,1,1.19-4.22,33.84,33.84,0,0,1,5.06-9.29" transform="translate(-153.25 -48.8)"/><path class="cls-13" d="M378,218.55" transform="translate(-153.25 -48.8)"/><path class="cls-14" d="M211.86,139.32c-13.65.5-9.45,17.05-19.94,26.69-6,5.52,17.67-8.12,30.91-1.12,11,5.82,12.66-18.91,21.82-20.75C252.73,142.52,232.67,138.56,211.86,139.32Z" transform="translate(-153.25 -48.8)"/><path class="cls-15" d="M347.65,101c-.14-1.44,11.62-7,21.72-2.52,10.39,4.59,14.07,17.56,12.77,18.49s-6-8.74-17.93-13.26C355,100.21,347.77,102.12,347.65,101Z" transform="translate(-153.25 -48.8)"/><path class="cls-16" d="M259.89,97c-.29-4.92,29.88-13.12,32.16-8.68,1.24,2.41-14.94,19.9-13.19,11.89C280.71,91.71,260.06,99.74,259.89,97Z" transform="translate(-153.25 -48.8)"/><path class="cls-17" d="M360.42,133.37c-1.84-4.15,7.4,32.6-7.4,33.44-2.12.12-3.62,1.64-3.53,1.93.27.87,19.09-2.77,23.79-9.33C380,150,365,143.66,360.42,133.37Z" transform="translate(-153.25 -48.8)"/><path class="cls-11" d="M437.86,195.94c5.08,6.21-2.93,34.2-4.14,37.59,0,0-7.05-9.62,0,.36,1.07,1.52,9.82-19.63,12.22,1.6.78,6.85,4.77-16.36,2.57-23.79C446.16,203.85,436,193.67,437.86,195.94Z" transform="translate(-153.25 -48.8)"/><path class="cls-14" d="M215.86,220.71c7.64,5.73,13.67,14.6,29.55,15.89,7.53.61,13.42-.87,20-2.54,15-3.79,14.95-7.65,28-11.12,15.09-4,22.16-.69,28-7.31.38-.44,5-5.89,3.5-11.12-2.46-8.37-26.76,2.61-27.65,2.54-22.25-1.7-37.93,15.52-66.41,8.6-.71-.18,18.82,7.68,11.44,8.88C229.93,226.52,213.62,219,215.86,220.71Z" transform="translate(-153.25 -48.8)"/><path class="cls-11" d="M286.82,208.87c-1.06,4.66,13.67,14.6,29.55,15.88,7.53.62,13.42-.87,20-2.54,15-3.78,14.95-7.65,28-11.12,15.09-4,22.16-.69,28-7.31.39-.43,5-5.88,3.5-11.12-2.46-8.36-26.76,2.61-27.65,2.54-22.25-1.7-42.09,7-66.41,8.6-.73,0,18.82,7.68,11.44,8.88C300.9,214.67,287.44,206.14,286.82,208.87Z" transform="translate(-153.25 -48.8)"/></g><g id="innerear"><path class="cls-18" d="M465.92,266.18c-.36-1.13,4-3.07,10.8-6.06,1.18-.52,2.52-1.09,3.68-.53,1.78.86,2,3.78,2.11,5.27.57,8.55,1,15,1.05,16.32.61,8.95,2.82,11.21,1.85,19-.29,2.3-.37,5.19-1.06,5.26-1.47.16-6.8-12.34-6.32-26.32.19-5.29,1.14-9.05-1.31-11.32C473.22,264.51,466.37,267.58,465.92,266.18Z" transform="translate(-153.25 -48.8)"/><path class="cls-19" d="M454.86,289.34a33.12,33.12,0,0,1,10.27,4.22,13,13,0,0,1,4.22,3.68c.34.52.87,1.42,2.1,6.32,1.11,4.42.87,4.45,1.58,6.58,1.22,3.64,2,3.67,1.84,5.27-.14,2.2-1.66,4-3.42,6a20.62,20.62,0,0,1-2.37,2.37,15.81,15.81,0,0,1-2.89,2.11c-2.4,1.23-6.12,1.22-7.64-.26-2.31-2.25,5.09-7,3.95-13.69-.49-2.89-1.93-2.89-3.69-8.69-.67-2.24-.72-3.11-1.58-6.32S455.47,291.05,454.86,289.34Z" transform="translate(-153.25 -48.8)"/><path class="cls-20" d="M176.31,310.93c.64-2.07-8.43-8.69-12.11-6.05a4.91,4.91,0,0,0-1.58,4.74c.41,1.9,1.9,2.31,3.16,4.21s.93,3.5,1.32,7.37c.33,3.23.65,2.41,3.16,12.9,1.5,6.28,1.51,7.11,1.84,7.11,1.31,0,5.72-13,.53-21.85-1.23-2.09-3.22-4.36-2.37-6.06C171.35,311.13,175.89,312.31,176.31,310.93Z" transform="translate(-153.25 -48.8)"/><path class="cls-21" d="M184.21,331.21c-2.25.45-3.94,4-4,6.84,0,2.26,1.06,2.58,1.58,6.06a21.94,21.94,0,0,1,0,6.05c-.52,4.75-1.85,5.69-1.05,7.37s2.62,2.13,6.32,3.16c4.52,1.26,6.77,1.89,8.16,1.06,4.14-2.51,1.91-15.09-3.42-23.7C190.41,335.73,187.23,330.6,184.21,331.21Z" transform="translate(-153.25 -48.8)"/></g><g id="glasses"><polygon class="cls-22" points="284.67 226.68 289.08 240.04 305.57 204.23 284.67 226.68"/><path class="cls-22" d="M331.82,294.73c.83-1.87,4.07-8.41,21-16.11,8.88-4,21-9.4,38.18-9.61,12.81-.15,21.21-.25,28.7,5.28,13.62,10.07,16.1,32.75,9.34,49.28-8.8,21.55-31.19,27.51-34.93,28.43-19.91,4.91-41.3-2.43-53.2-16.78-2.51-3-10.41-13.37-11-27.62C329.78,304,329.66,299.58,331.82,294.73Z" transform="translate(-153.25 -48.8)"/><path class="cls-22" d="M301.9,306c7.47,10.06,6.52,29.94-2.71,44.54-7.45,11.77-18.18,16.79-22.07,18.55-5.6,2.53-25.32,10.28-45.76-.13a51.44,51.44,0,0,1-26.81-35.61c-.84-4.42-2.06-10.83.54-18,5-13.77,20-19.1,28.71-22.2,0,0,19.16-6.82,47.25.14,8.29,2.05,13,5,16.35,7.89l.46.42A34.11,34.11,0,0,1,301.9,306Z" transform="translate(-153.25 -48.8)"/><path class="cls-22" d="M330.63,294.93c-11,.25-18.24,1.9-33.23,6.21-3.21.92-5.23,1.53-5.63,3-1,3.82,9,10.92,11.24,9.26.45-.34.33-.86.53-1.59,1.7-6.2,21.82-9,28.94-4.63a2.84,2.84,0,0,0,2,.53c3-.56,5.36-8.12,2.77-11.23C335.91,294.91,333.56,294.86,330.63,294.93Z" transform="translate(-153.25 -48.8)"/><path class="cls-18" d="M303.54,311.85" transform="translate(-153.25 -48.8)"/><path class="cls-18" d="M442.89,288.62" transform="translate(-153.25 -48.8)"/><polygon class="cls-22" points="266.11 225.48 284.86 226.64 289.65 239.69 278.3 245.94 266.11 225.48"/><polygon class="cls-22" points="55.42 259.88 38.18 267.34 38.18 276.99 51.31 284.52 55.42 259.88"/><polygon class="cls-22" points="25.84 246.43 40.5 266.34 38.18 276.99 25.13 247.26 25.84 246.43"/></g><g id="innereyes"><path class="cls-3" d="M210.28,332.54c-1.15-2.06-1.59-12.27,0-14.84,2.88-4.05,13.21-17.54,32.06-22.17a55.63,55.63,0,0,1,27.38.46c7.1,1.92,22.64,6.12,28.52,18.93,7.15,15.59-3.4,36.52-18,46.78a45.21,45.21,0,0,1-43.58,4.56c-22.89-9.87-26.54-34.15-26.7-35.37" transform="translate(-153.25 -48.8)"/><path class="cls-3" d="M338.54,316.6c-1.24-3.94-2.77-9-1.55-15.33a17.57,17.57,0,0,1,3.35-8.67c13.45-11.63,21.07-13.55,26.45-15.1A119.35,119.35,0,0,1,383.93,274c10.72-1.37,16.18-2.07,22.74.14a32.1,32.1,0,0,1,16.75,13.16c6.79,11,4,22.84,2.66,28.31-.94,3.92-3.8,15.18-14.23,23.53-8.36,6.71-17.12,8-22.86,8.78-5.1.73-13.46,1.92-23.14-1.73a43.37,43.37,0,0,1-17.54-12.76A47.74,47.74,0,0,1,338.54,316.6Z" transform="translate(-153.25 -48.8)"/></g><g id="glassesaccent"><polygon class="cls-23" points="275.28 237.28 277.97 234.44 282.75 235.86 279.01 239.82 275.28 237.28"/><polygon class="cls-23" points="43.88 274.32 47.17 271.63 51.8 272.98 47.84 276.27 43.88 274.32"/><path class="cls-24" d="M257.34,290.49c-.06-1.31,9.4-.15,17.27,1.37,1,.19,2.82.49,3.19,1,.57.82-1.69,2.6-4.06,2.71a9.16,9.16,0,0,1-2.91,0c-5-1-11.71-1.13-12.62-1.62S257.4,291.79,257.34,290.49Z" transform="translate(-153.25 -48.8)"/><path class="cls-24" d="M295.57,301.31c.9-1.88,3.78-.54,11.51-2.69.94-.26,1.45-.43,1.79-.15,2,1.64-5.15,15.26-8.37,14.49-.45-.11-1.05-1.47-2.24-4.18C296.27,304.21,295.28,301.92,295.57,301.31Z" transform="translate(-153.25 -48.8)"/><path class="cls-25" d="M272.59,366.62c0,.84,1.71,3.29,1.84,3.26,3.47-.8,4-1.49,6.26-3.07.58-.41-1.42-4.65-1.77-4.21C277.6,364.26,272.61,364.91,272.59,366.62Z" transform="translate(-153.25 -48.8)"/><path class="cls-26" d="M330.8,308.79c-1.12.7-.28,6.12.93,9.43.61,1.67,1.49.67,1.69.68.95,0,3.76-3.89,3.12-7.66C336,308.19,331.57,308.3,330.8,308.79Z" transform="translate(-153.25 -48.8)"/><path class="cls-27" d="M394.8,270c-.4.66.78,1.26,1.38,1.69,1.95,1.38,3.63,1.17,4.33.16.45-.65.45-2.12-.28-2.46C398.24,268.5,395.43,269,394.8,270Z" transform="translate(-153.25 -48.8)"/><path class="cls-28" d="M401.42,345.38c-.28.6.58,3.82,2.05,3.36a35.59,35.59,0,0,0,19.11-15.6A36.64,36.64,0,0,0,426.92,322c.39-2.36.72-5.76.25-5.86-.66-.15-.76,4.76-5.65,11.57A65.76,65.76,0,0,1,415,336.4c-.37.43-3.19,2.81-4.88,4.12a23.79,23.79,0,0,1-5.44,3.2C403,344.5,401.64,344.92,401.42,345.38Z" transform="translate(-153.25 -48.8)"/><path class="cls-29" d="M208.24,309.24c-1,1.2,1.89,7.86,2.64,6.87,3.41-4.55,14.16-12.82,11.78-12.43-.49.08-7.27,2.72-11.95,3.34C210.08,307.1,208.8,308.53,208.24,309.24Z" transform="translate(-153.25 -48.8)"/></g><g id="faceaccents"><path class="cls-30" d="M241,409.59c.77-.32,2.84,2.5,3.74,5.07,1.4,4,.39,8.48-.53,8.55C242.61,423.34,239.5,410.22,241,409.59Z" transform="translate(-153.25 -48.8)"/><path class="cls-31" d="M430.36,390.89c-1.35,5,.67,10.23,1.6,10.15,1.52-.12,2.32-14.36.8-14.69C432.05,386.2,430.84,389.07,430.36,390.89Z" transform="translate(-153.25 -48.8)"/></g></svg>