<svg id="Layer_1" data-name="Layer 1" xmlns="http://www.w3.org/2000/svg" viewBox="0 0 202.2 86.75"><defs><style>.cls-1{fill:#8a829c;}</style></defs><title>namemark2</title><path class="cls-1" d="M17,44.57l-10.2-11L17,22.47h10.7l-10.2,11.1,10.2,11Z" transform="translate(-6.82 -15.72)"/><path class="cls-1" d="M53.72,15.72V39.87q0,5.55-3,8.55t-8.38,3q-5.79,0-9.2-3.27t-3.4-9.43h8.45q0,5,3.75,5c2.17,0,3.25-1.26,3.25-3.8V15.72Z" transform="translate(-6.82 -15.72)"/><path class="cls-1" d="M87.12,23.17v27.9h-8.6V46A9.2,9.2,0,0,1,75,49.92a10.39,10.39,0,0,1-5.53,1.45,9.62,9.62,0,0,1-7.62-3.2Q59,45,59,39.37V23.17h8.5V38.32A6.21,6.21,0,0,0,69,42.75a5.17,5.17,0,0,0,4,1.57A5.25,5.25,0,0,0,77,42.67a6.73,6.73,0,0,0,1.5-4.7V23.17Z" transform="translate(-6.82 -15.72)"/><path class="cls-1" d="M111.65,25.47a11.53,11.53,0,0,1,4,7h-8a4.44,4.44,0,0,0-1.57-2.67,4.79,4.79,0,0,0-3.08-1,3.36,3.36,0,0,0-2.2.63,2.18,2.18,0,0,0-.75,1.77,2.08,2.08,0,0,0,1.38,2,21.19,21.19,0,0,0,4.32,1.3A41.59,41.59,0,0,1,111,36a8.72,8.72,0,0,1,3.55,2.52,7,7,0,0,1,1.5,4.7,7.18,7.18,0,0,1-1.3,4.25,8.44,8.44,0,0,1-3.75,2.9,14.62,14.62,0,0,1-5.8,1.05q-5.64,0-9-2.5A10.56,10.56,0,0,1,92,41.77h8.25a3.71,3.71,0,0,0,1.53,2.75,5.67,5.67,0,0,0,3.42.95,3.18,3.18,0,0,0,2.2-.67,2.27,2.27,0,0,0,.75-1.78A2.13,2.13,0,0,0,106.75,41a25.28,25.28,0,0,0-4.48-1.33,35.84,35.84,0,0,1-5.1-1.4,8.42,8.42,0,0,1-3.45-2.42,6.8,6.8,0,0,1-1.45-4.58,7.46,7.46,0,0,1,2.85-6.07c1.9-1.55,4.59-2.33,8-2.33A12.85,12.85,0,0,1,111.65,25.47Z" transform="translate(-6.82 -15.72)"/><path class="cls-1" d="M136.57,43.72v7.35h-3.85c-3.27,0-5.81-.8-7.62-2.42s-2.73-4.29-2.73-8V30.37h-3.75v-7.2h3.75V16.32h8.55v6.85h5.6v7.2h-5.6v10.4a3.13,3.13,0,0,0,.68,2.3,3.18,3.18,0,0,0,2.27.65Z" transform="translate(-6.82 -15.72)"/><path class="cls-1" d="M53.07,86.52h11.4v6.55H44.52V57.72h8.55Z" transform="translate(-6.82 -15.72)"/><path class="cls-1" d="M84.52,66.27a8.71,8.71,0,0,1,3.4,4v-5h8.5v27.9h-8.5V88a8.61,8.61,0,0,1-3.4,4A10,10,0,0,1,79,93.42a11.29,11.29,0,0,1-6.17-1.72,11.77,11.77,0,0,1-4.3-5A17.22,17.22,0,0,1,67,79.12a17.19,17.19,0,0,1,1.58-7.62,11.81,11.81,0,0,1,4.3-5A11.29,11.29,0,0,1,79,64.82,10.13,10.13,0,0,1,84.52,66.27Zm-7.17,7.85a7,7,0,0,0-1.68,5,7,7,0,0,0,1.68,5,6.28,6.28,0,0,0,8.85-.05,8,8,0,0,0,0-9.92,5.82,5.82,0,0,0-4.43-1.83A5.76,5.76,0,0,0,77.35,74.12Z" transform="translate(-6.82 -15.72)"/><path class="cls-1" d="M121,67.47a11.48,11.48,0,0,1,4,7h-8a4.44,4.44,0,0,0-1.57-2.67,4.79,4.79,0,0,0-3.08-1,3.36,3.36,0,0,0-2.2.63,2.18,2.18,0,0,0-.75,1.77,2.08,2.08,0,0,0,1.38,2,21.4,21.4,0,0,0,4.32,1.3A41.59,41.59,0,0,1,120.27,78a8.72,8.72,0,0,1,3.55,2.52,7,7,0,0,1,1.5,4.7,7.18,7.18,0,0,1-1.3,4.25,8.44,8.44,0,0,1-3.75,2.9,14.62,14.62,0,0,1-5.8,1q-5.64,0-9-2.5a10.56,10.56,0,0,1-4.15-7.15h8.25a3.74,3.74,0,0,0,1.53,2.75,5.67,5.67,0,0,0,3.42,1,3.18,3.18,0,0,0,2.2-.67,2.27,2.27,0,0,0,.75-1.78A2.13,2.13,0,0,0,116.05,83a25.28,25.28,0,0,0-4.48-1.33,35.84,35.84,0,0,1-5.1-1.4A8.42,8.42,0,0,1,103,77.8a6.8,6.8,0,0,1-1.45-4.58,7.46,7.46,0,0,1,2.85-6.07c1.9-1.55,4.59-2.33,8-2.33A12.85,12.85,0,0,1,121,67.47Z" transform="translate(-6.82 -15.72)"/><path class="cls-1" d="M147,93.07l-8.35-11.85V93.07h-8.55v-37h8.55v20.3L147,65.17H157l-11.25,14,11.5,13.95Z" transform="translate(-6.82 -15.72)"/><path class="cls-1" d="M188.12,45.57l-13.45,56.9h-8.25l13.45-56.9Z" transform="translate(-6.82 -15.72)"/><path class="cls-1" d="M188.12,64.47h10.7L209,75.57l-10.2,11h-10.7l10.2-11Z" transform="translate(-6.82 -15.72)"/></svg>