<svg id="Layer_1" data-name="Layer 1" xmlns="http://www.w3.org/2000/svg" viewBox="0 0 196.75 89.65"><defs><style>.cls-1{fill:#8a829c;}</style></defs><title>namemark</title><path class="cls-1" d="M6.82,33.57" transform="translate(-8.44 -7.68)"/><path class="cls-1" d="M209,75.57" transform="translate(-8.44 -7.68)"/><path class="cls-1" d="M18.64,41.43l-10.2-11,10.2-11.1h10.7l-10.2,11.1,10.2,11Z" transform="translate(-8.44 -7.68)"/><path class="cls-1" d="M29,53.88h2.1a2.77,2.77,0,0,0,2-.58,2.57,2.57,0,0,0,.6-1.92V20h8.6V51.28q0,9.94-10,9.95H29Zm5.2-38.53a4.13,4.13,0,0,1-1.4-3.17A4.2,4.2,0,0,1,34.18,9a5.3,5.3,0,0,1,3.7-1.27A5.26,5.26,0,0,1,41.58,9,4.16,4.16,0,0,1,43,12.18a4.1,4.1,0,0,1-1.4,3.17,5.27,5.27,0,0,1-3.7,1.28A5.3,5.3,0,0,1,34.18,15.35Z" transform="translate(-8.44 -7.68)"/><path class="cls-1" d="M75.78,20v27.9h-8.6v-5a9.32,9.32,0,0,1-3.57,3.9,10.46,10.46,0,0,1-5.53,1.45A9.65,9.65,0,0,1,50.46,45c-1.88-2.14-2.83-5.07-2.83-8.8V20h8.5V35.18a6.23,6.23,0,0,0,1.48,4.42,5.18,5.18,0,0,0,4,1.58,5.25,5.25,0,0,0,4.1-1.65,6.75,6.75,0,0,0,1.5-4.7V20Z" transform="translate(-8.44 -7.68)"/><path class="cls-1" d="M100.31,22.33a11.51,11.51,0,0,1,4,7h-8a4.39,4.39,0,0,0-1.57-2.68,4.79,4.79,0,0,0-3.08-1,3.35,3.35,0,0,0-2.2.62,2.19,2.19,0,0,0-.75,1.78,2.1,2.1,0,0,0,1.38,2,22.56,22.56,0,0,0,4.32,1.3,41.78,41.78,0,0,1,5.25,1.52,8.65,8.65,0,0,1,3.55,2.53,7,7,0,0,1,1.5,4.7,7.2,7.2,0,0,1-1.3,4.25,8.51,8.51,0,0,1-3.75,2.9,14.62,14.62,0,0,1-5.8,1.05,15,15,0,0,1-9-2.5,10.58,10.58,0,0,1-4.15-7.15h8.25a3.76,3.76,0,0,0,1.53,2.75,5.74,5.74,0,0,0,3.42.95,3.18,3.18,0,0,0,2.2-.68,2.27,2.27,0,0,0,.75-1.77,2.15,2.15,0,0,0-1.37-2.08,24.61,24.61,0,0,0-4.48-1.32,37.23,37.23,0,0,1-5.1-1.4,8.44,8.44,0,0,1-3.45-2.43,6.79,6.79,0,0,1-1.45-4.57A7.48,7.48,0,0,1,83.78,22c1.9-1.55,4.59-2.32,8-2.32A12.79,12.79,0,0,1,100.31,22.33Z" transform="translate(-8.44 -7.68)"/><path class="cls-1" d="M125.23,40.58v7.35h-3.85c-3.26,0-5.81-.81-7.62-2.43s-2.73-4.29-2.73-8V27.23h-3.75V20H111V13.18h8.55V20h5.6v7.2h-5.6v10.4a3.14,3.14,0,0,0,.68,2.3,3.24,3.24,0,0,0,2.27.65Z" transform="translate(-8.44 -7.68)"/><path class="cls-1" d="M58.69,50.93v37H50.14v-37Z" transform="translate(-8.44 -7.68)"/><path class="cls-1" d="M80.68,61.13a8.61,8.61,0,0,1,3.4,3.95V60h8.5v27.9h-8.5V82.88a8.71,8.71,0,0,1-3.4,4,10.13,10.13,0,0,1-5.5,1.45A11.29,11.29,0,0,1,69,86.55a11.8,11.8,0,0,1-4.3-5A17.25,17.25,0,0,1,63.13,74a17.2,17.2,0,0,1,1.58-7.63A11.81,11.81,0,0,1,69,61.4a11.29,11.29,0,0,1,6.17-1.72A10,10,0,0,1,80.68,61.13ZM73.51,69a7,7,0,0,0-1.68,5,7,7,0,0,0,1.68,5,6.28,6.28,0,0,0,8.85,0,8,8,0,0,0,0-9.93,6.31,6.31,0,0,0-8.85,0Z" transform="translate(-8.44 -7.68)"/><path class="cls-1" d="M117.11,62.33a11.46,11.46,0,0,1,4,7h-8a4.39,4.39,0,0,0-1.57-2.68,4.79,4.79,0,0,0-3.08-1,3.35,3.35,0,0,0-2.2.62,2.19,2.19,0,0,0-.75,1.78,2.1,2.1,0,0,0,1.38,2,22.8,22.8,0,0,0,4.32,1.3,42.5,42.5,0,0,1,5.26,1.52A8.69,8.69,0,0,1,120,75.38a7,7,0,0,1,1.5,4.7,7.26,7.26,0,0,1-1.29,4.25,8.62,8.62,0,0,1-3.75,2.9,14.7,14.7,0,0,1-5.81,1,15,15,0,0,1-9-2.5,10.58,10.58,0,0,1-4.15-7.15h8.25a3.76,3.76,0,0,0,1.53,2.75,5.74,5.74,0,0,0,3.42,1,3.18,3.18,0,0,0,2.2-.68,2.27,2.27,0,0,0,.75-1.77,2.13,2.13,0,0,0-1.37-2.08,24.61,24.61,0,0,0-4.48-1.32,37.23,37.23,0,0,1-5.1-1.4,8.44,8.44,0,0,1-3.45-2.43,6.79,6.79,0,0,1-1.45-4.57A7.48,7.48,0,0,1,100.58,62c1.9-1.55,4.59-2.32,8-2.32A12.79,12.79,0,0,1,117.11,62.33Z" transform="translate(-8.44 -7.68)"/><path class="cls-1" d="M143.13,87.93l-8.35-11.85V87.93h-8.55v-37h8.55v20.3L143.13,60h10.05L141.93,74l11.5,14Z" transform="translate(-8.44 -7.68)"/><path class="cls-1" d="M184.28,40.43l-13.45,56.9h-8.25L176,40.43Z" transform="translate(-8.44 -7.68)"/><path class="cls-1" d="M184.28,59.33H195l10.2,11.1-10.2,11h-10.7l10.2-11Z" transform="translate(-8.44 -7.68)"/></svg>